HIERARCHY
ROOT Hip
{
	OFFSET	0.0000	0.0000	0.0000
	CHANNELS 6 Xposition Yposition Zposition Xrotation Yrotation Zrotation
	JOINT LowerSpine
	{
		OFFSET	0.0000	9.5494	-5.1676
		CHANNELS 3 Xrotation Yrotation Zrotation
		JOINT MiddleSpine
		{
			OFFSET	0.0000	8.7146	0.4552
			CHANNELS 3 Xrotation Yrotation Zrotation
			JOINT Chest
			{
				OFFSET	0.0000	10.7833	-2.4002
				CHANNELS 3 Xrotation Yrotation Zrotation
				JOINT Neck
				{
					OFFSET	0.0000	24.2996	-0.5053
					CHANNELS 3 Xrotation Yrotation Zrotation
					JOINT Head
					{
						OFFSET	0.0000	13.7223	3.7325
						CHANNELS 3 Xrotation Yrotation Zrotation
						End Site
						{
							OFFSET	0.0001	19.1736	0.5724
						}
					}
				}
				JOINT LClavicle
				{
					OFFSET	2.4533	23.4504	8.0342
					CHANNELS 3 Xrotation Yrotation Zrotation
					JOINT LShoulder
					{
						OFFSET	14.3322	3.3636	-5.4426
						CHANNELS 3 Xrotation Yrotation Zrotation
						JOINT LForearm
						{
							OFFSET	30.4446	-0.1081	-0.2638
							CHANNELS 3 Xrotation Yrotation Zrotation
							JOINT LHand
							{
								OFFSET	25.3972	0.0737	-0.1521
								CHANNELS 3 Xrotation Yrotation Zrotation
								JOINT LFinger1
								{
									OFFSET	9.8432	0.8608	2.7339
									CHANNELS 3 Xrotation Yrotation Zrotation
									JOINT LFinger11
									{
										OFFSET	3.6819	-0.8978	0.6488
										CHANNELS 3 Xrotation Yrotation Zrotation
										JOINT LFinger12
										{
											OFFSET	2.5135	-0.6132	0.4431
											CHANNELS 3 Xrotation Yrotation Zrotation
											End Site
											{
												OFFSET	1.7886	-0.5339	0.2901
											}
										}
									}
								}
								JOINT LFinger2
								{
									OFFSET	9.9901	0.9941	0.2380
									CHANNELS 3 Xrotation Yrotation Zrotation
									JOINT LFinger21
									{
										OFFSET	4.5524	0.0127	-0.0269
										CHANNELS 3 Xrotation Yrotation Zrotation
										JOINT LFinger22
										{
											OFFSET	2.5233	0.0077	-0.0154
											CHANNELS 3 Xrotation Yrotation Zrotation
											End Site
											{
												OFFSET	2.2665	-0.1600	0.0030
											}
										}
									}
								}
								JOINT LFinger3
								{
									OFFSET	9.4677	0.6633	-2.2398
									CHANNELS 3 Xrotation Yrotation Zrotation
									JOINT LFinger31
									{
										OFFSET	4.1308	-0.2092	-0.2586
										CHANNELS 3 Xrotation Yrotation Zrotation
										JOINT LFinger32
										{
											OFFSET	2.3539	-0.1184	-0.1479
											CHANNELS 3 Xrotation Yrotation Zrotation
											End Site
											{
												OFFSET	2.0813	-0.2559	-0.0984
											}
										}
									}
								}
								JOINT LFinger4
								{
									OFFSET	8.7856	-0.6677	-3.8683
									CHANNELS 3 Xrotation Yrotation Zrotation
									JOINT LFinger41
									{
										OFFSET	2.5409	-0.5299	-0.7014
										CHANNELS 3 Xrotation Yrotation Zrotation
										JOINT LFinger42
										{
											OFFSET	1.8632	-0.3881	-0.5146
											CHANNELS 3 Xrotation Yrotation Zrotation
											End Site
											{
												OFFSET	1.6537	-0.4544	-0.3794
											}
										}
									}
								}
								JOINT LFinger0
								{
									OFFSET	2.0361	-1.5412	1.5436
									CHANNELS 3 Xrotation Yrotation Zrotation
									JOINT LFinger01
									{
										OFFSET	3.7911	-1.2452	2.8583
										CHANNELS 3 Xrotation Yrotation Zrotation
										JOINT LFinger02
										{
											OFFSET	2.4964	-0.8932	1.7986
											CHANNELS 3 Xrotation Yrotation Zrotation
											End Site
											{
												OFFSET	1.8357	-0.6319	1.2570
											}
										}
									}
								}
							}
						}
					}
				}
				JOINT RClavicle
				{
					OFFSET	-2.4533	23.4504	8.0342
					CHANNELS 3 Xrotation Yrotation Zrotation
					JOINT RShoulder
					{
						OFFSET	-14.3348	3.3642	-5.4436
						CHANNELS 3 Xrotation Yrotation Zrotation
						JOINT RForearm
						{
							OFFSET	-30.4446	-0.1081	-0.2638
							CHANNELS 3 Xrotation Yrotation Zrotation
							JOINT RHand
							{
								OFFSET	-25.3972	0.0737	-0.1521
								CHANNELS 3 Xrotation Yrotation Zrotation
								JOINT RFinger1
								{
									OFFSET	-9.8432	0.8608	2.7339
									CHANNELS 3 Xrotation Yrotation Zrotation
									JOINT RFinger11
									{
										OFFSET	-3.6819	-0.8978	0.6488
										CHANNELS 3 Xrotation Yrotation Zrotation
										JOINT RFinger12
										{
											OFFSET	-2.5135	-0.6132	0.4431
											CHANNELS 3 Xrotation Yrotation Zrotation
											End Site
											{
												OFFSET	-1.7886	-0.5339	0.2901
											}
										}
									}
								}
								JOINT RFinger2
								{
									OFFSET	-9.9901	0.9941	0.2380
									CHANNELS 3 Xrotation Yrotation Zrotation
									JOINT RFinger21
									{
										OFFSET	-4.5524	0.0127	-0.0269
										CHANNELS 3 Xrotation Yrotation Zrotation
										JOINT RFinger22
										{
											OFFSET	-2.5233	0.0077	-0.0154
											CHANNELS 3 Xrotation Yrotation Zrotation
											End Site
											{
												OFFSET	-2.2665	-0.1600	0.0030
											}
										}
									}
								}
								JOINT RFinger3
								{
									OFFSET	-9.4677	0.6633	-2.2398
									CHANNELS 3 Xrotation Yrotation Zrotation
									JOINT RFinger31
									{
										OFFSET	-4.1308	-0.2091	-0.2586
										CHANNELS 3 Xrotation Yrotation Zrotation
										JOINT RFinger32
										{
											OFFSET	-2.3539	-0.1184	-0.1479
											CHANNELS 3 Xrotation Yrotation Zrotation
											End Site
											{
												OFFSET	-2.0813	-0.2559	-0.0984
											}
										}
									}
								}
								JOINT RFinger4
								{
									OFFSET	-8.7856	-0.6677	-3.8683
									CHANNELS 3 Xrotation Yrotation Zrotation
									JOINT RFinger41
									{
										OFFSET	-2.5409	-0.5299	-0.7014
										CHANNELS 3 Xrotation Yrotation Zrotation
										JOINT RFinger42
										{
											OFFSET	-1.8632	-0.3881	-0.5146
											CHANNELS 3 Xrotation Yrotation Zrotation
											End Site
											{
												OFFSET	-1.6537	-0.4544	-0.3794
											}
										}
									}
								}
								JOINT RFinger0
								{
									OFFSET	-2.0361	-1.5412	1.5436
									CHANNELS 3 Xrotation Yrotation Zrotation
									JOINT RFinger01
									{
										OFFSET	-3.7911	-1.2452	2.8583
										CHANNELS 3 Xrotation Yrotation Zrotation
										JOINT RFinger02
										{
											OFFSET	-2.4964	-0.8932	1.7986
											CHANNELS 3 Xrotation Yrotation Zrotation
											End Site
											{
												OFFSET	-1.8357	-0.6319	1.2570
											}
										}
									}
								}
							}
						}
					}
				}
			}
		}
	}
	JOINT RThigh
	{
		OFFSET	-10.2155	4.3166	-0.8421
		CHANNELS 3 Xrotation Yrotation Zrotation
		JOINT RShin
		{
			OFFSET	-0.8174	-44.4328	0.0000
			CHANNELS 3 Xrotation Yrotation Zrotation
			JOINT RFoot
			{
				OFFSET	0.0000	-43.6302	0.0000
				CHANNELS 3 Xrotation Yrotation Zrotation
				JOINT RToe
				{
					OFFSET	0.0000	-4.7954	10.0277
					CHANNELS 3 Xrotation Yrotation Zrotation
					End Site
					{
						OFFSET	0.0000	0.0000	6.7272
					}
				}
			}
		}
	}
	JOINT LThigh
	{
		OFFSET	10.2154	4.3169	-0.8421
		CHANNELS 3 Xrotation Yrotation Zrotation
		JOINT LShin
		{
			OFFSET	0.8175	-44.4331	0.0000
			CHANNELS 3 Xrotation Yrotation Zrotation
			JOINT LFoot
			{
				OFFSET	0.0000	-43.6302	0.0000
				CHANNELS 3 Xrotation Yrotation Zrotation
				JOINT LToe
				{
					OFFSET	0.0000	-4.7954	10.0278
					CHANNELS 3 Xrotation Yrotation Zrotation
					End Site
					{
						OFFSET	0.0000	0.0000	6.7272
					}
				}
			}
		}
	}
}
MOTION
Frames:	7
Frame Time: 0.0333333000
	0.0000	91.0323	2.8200	0.000000	0.000000	0.000000	0.000000	0.000000	0.000000	0.000000	0.000000	0.000000	0.000000	0.000000	0.000000	0.000000	0.000000	0.000000	0.000000	0.000000	0.000000	0.000000	0.000000	0.000000	0.000000	0.000000	0.000000	0.000000	0.000000	0.000000	0.000000	0.000000	0.000000	0.000000	0.000000	0.000000	0.000000	0.000000	0.000000	0.000000	0.000000	0.000000	0.000000	0.000000	0.000000	0.000000	0.000000	0.000000	0.000000	0.000000	0.000000	0.000000	0.000000	0.000000	0.000000	0.000000	0.000000	0.000000	0.000000	0.000000	0.000000	0.000000	0.000000	0.000000	0.000000	0.000000	0.000000	0.000000	0.000000	0.000000	0.000000	0.000000	0.000000	0.000000	0.000000	0.000000	0.000000	0.000000	0.000000	0.000000	0.000000	0.000000	0.000000	0.000000	0.000000	0.000000	0.000000	0.000000	0.000000	0.000000	0.000000	0.000000	0.000000	0.000000	0.000000	0.000000	0.000000	0.000000	0.000000	0.000000	0.000000	0.000000	0.000000	0.000000	0.000000	0.000000	0.000000	0.000000	0.000000	0.000000	0.000000	0.000000	0.000000	0.000000	0.000000	0.000000	0.000000	0.000000	0.000000	0.000000	0.000000	0.000000	0.000000	0.000000	0.000000	0.000000	0.000000	0.000000	0.000000	0.000000	0.000000	0.000000	0.000000	0.000000	0.000000	0.000000	0.000000	0.000000	0.000000	0.000000	0.000000	0.000000	0.000000	0.000000	0.000000	0.000000	0.000000	0.000000	0.000000	0.000000	0.000000	0.000000	0.000000	0.000000	0.000000	0.000000	0.000000	0.000000	0.000000
	-24.8314	90.5339	72.4155	-29.511350	-63.233630	-26.880540	0.000000	0.000000	0.000000	4.042510	-0.444496	0.354344	13.487030	-1.376070	1.297216	0.000000	0.000000	0.000000	0.000000	0.000000	0.000000	0.000000	0.000000	-9.768592	-2.865914	-6.981922	-39.178130	-5.596910	-4.062972	5.525169	0.000000	0.000000	0.000000	0.000000	0.000000	0.000000	0.000000	0.000000	0.000000	0.000000	0.000000	0.000000	0.000000	0.000000	0.000000	0.000000	0.000000	0.000000	0.000000	0.000000	0.000000	0.000000	0.000000	0.000000	0.000000	0.000000	0.000000	0.000000	0.000000	0.000000	0.000000	0.000000	0.000000	0.000000	0.000000	0.000000	0.000000	0.000000	0.000000	0.000000	0.000000	0.000000	0.000000	0.000000	0.000000	0.000000	0.000000	0.000000	0.000000	0.000000	8.380900	-0.505837	0.734657	33.326810	-9.530469	10.795720	-8.673450	0.000000	0.000000	0.000000	0.000000	0.000000	0.000000	0.000000	0.000000	0.000000	0.000000	0.000000	0.000000	0.000000	0.000000	0.000000	0.000000	0.000000	0.000000	0.000000	0.000000	0.000000	0.000000	0.000000	0.000000	0.000000	0.000000	0.000000	0.000000	0.000000	0.000000	0.000000	0.000000	0.000000	0.000000	0.000000	0.000000	0.000000	0.000000	0.000000	0.000000	0.000000	0.000000	0.000000	0.000000	0.000000	0.000000	0.000000	0.000000	21.083160	-0.865124	-4.607631	-2.015752	-0.056298	3.199401	-12.352500	-1.021720	-0.488823	0.000000	0.000000	0.000000	15.179470	0.523473	3.037091	7.420485	-0.013240	0.004931	-16.906870	11.304230	7.640038	0.000000	0.000000	0.000000
	-24.9330	90.5471	72.3642	-30.270600	-64.008670	-27.239360	0.000000	0.000000	0.000000	4.009730	-0.133427	0.186995	13.367790	-0.391604	0.656187	0.000000	0.000000	0.000000	0.000000	0.000000	0.000000	0.000000	0.000000	-9.703395	-3.312517	-7.203807	-39.005630	-5.746869	-4.297145	5.626951	0.000000	0.000000	0.000000	0.000000	0.000000	0.000000	0.000000	0.000000	0.000000	0.000000	0.000000	0.000000	0.000000	0.000000	0.000000	0.000000	0.000000	0.000000	0.000000	0.000000	0.000000	0.000000	0.000000	0.000000	0.000000	0.000000	0.000000	0.000000	0.000000	0.000000	0.000000	0.000000	0.000000	0.000000	0.000000	0.000000	0.000000	0.000000	0.000000	0.000000	0.000000	0.000000	0.000000	0.000000	0.000000	0.000000	0.000000	0.000000	0.000000	0.000000	8.377432	-0.504637	-0.210448	33.327100	-8.847444	11.220320	-7.637977	0.000000	0.000000	0.000000	0.000000	0.000000	0.000000	0.000000	0.000000	0.000000	0.000000	0.000000	0.000000	0.000000	0.000000	0.000000	0.000000	0.000000	0.000000	0.000000	0.000000	0.000000	0.000000	0.000000	0.000000	0.000000	0.000000	0.000000	0.000000	0.000000	0.000000	0.000000	0.000000	0.000000	0.000000	0.000000	0.000000	0.000000	0.000000	0.000000	0.000000	0.000000	0.000000	0.000000	0.000000	0.000000	0.000000	0.000000	0.000000	21.040460	-1.016700	-5.356670	-1.972847	-0.057152	3.311297	-12.084880	0.632991	0.533787	0.000000	0.000000	0.000000	15.886910	0.891165	2.947423	5.206872	0.122455	-0.712504	-17.043070	11.635930	7.926402	0.000000	0.000000	0.000000
	-25.0200	90.5757	72.4095	-31.557850	-64.699680	-28.116720	0.000000	0.000000	0.000000	4.019084	0.094211	0.065874	13.396830	0.330126	0.192613	0.000000	0.000000	0.000000	0.000000	0.000000	0.000000	0.000000	0.000000	-9.701079	-3.647060	-7.070781	-39.039020	-5.851912	-4.484429	5.683900	0.000000	0.000000	0.000000	0.000000	0.000000	0.000000	0.000000	0.000000	0.000000	0.000000	0.000000	0.000000	0.000000	0.000000	0.000000	0.000000	0.000000	0.000000	0.000000	0.000000	0.000000	0.000000	0.000000	0.000000	0.000000	0.000000	0.000000	0.000000	0.000000	0.000000	0.000000	0.000000	0.000000	0.000000	0.000000	0.000000	0.000000	0.000000	0.000000	0.000000	0.000000	0.000000	0.000000	0.000000	0.000000	0.000000	0.000000	0.000000	0.000000	0.000000	8.363539	-0.631526	-0.736177	33.275380	-8.463349	11.728470	-6.940704	0.000000	0.000000	0.000000	0.000000	0.000000	0.000000	0.000000	0.000000	0.000000	0.000000	0.000000	0.000000	0.000000	0.000000	0.000000	0.000000	0.000000	0.000000	0.000000	0.000000	0.000000	0.000000	0.000000	0.000000	0.000000	0.000000	0.000000	0.000000	0.000000	0.000000	0.000000	0.000000	0.000000	0.000000	0.000000	0.000000	0.000000	0.000000	0.000000	0.000000	0.000000	0.000000	0.000000	0.000000	0.000000	0.000000	0.000000	0.000000	21.198910	-1.147213	-5.952808	-2.194117	-0.060722	3.188918	-12.281710	2.294249	1.559639	0.000000	0.000000	0.000000	16.722480	1.037298	2.608223	3.472283	0.091582	-1.227098	-16.717530	12.088560	8.238320	0.000000	0.000000	0.000000
	-25.0355	90.6144	72.4885	-32.374420	-64.959260	-28.667200	0.000000	0.000000	0.000000	4.054962	0.200695	0.003627	13.516990	0.666287	-0.043039	0.000000	0.000000	0.000000	0.000000	0.000000	0.000000	0.000000	0.000000	-9.694302	-3.977544	-6.925902	-39.071460	-5.751094	-4.517773	5.530891	0.000000	0.000000	0.000000	0.000000	0.000000	0.000000	0.000000	0.000000	0.000000	0.000000	0.000000	0.000000	0.000000	0.000000	0.000000	0.000000	0.000000	0.000000	0.000000	0.000000	0.000000	0.000000	0.000000	0.000000	0.000000	0.000000	0.000000	0.000000	0.000000	0.000000	0.000000	0.000000	0.000000	0.000000	0.000000	0.000000	0.000000	0.000000	0.000000	0.000000	0.000000	0.000000	0.000000	0.000000	0.000000	0.000000	0.000000	0.000000	0.000000	0.000000	8.354136	-0.754825	-1.273839	33.240970	-8.446120	12.221930	-6.703295	0.000000	0.000000	0.000000	0.000000	0.000000	0.000000	0.000000	0.000000	0.000000	0.000000	0.000000	0.000000	0.000000	0.000000	0.000000	0.000000	0.000000	0.000000	0.000000	0.000000	0.000000	0.000000	0.000000	0.000000	0.000000	0.000000	0.000000	0.000000	0.000000	0.000000	0.000000	0.000000	0.000000	0.000000	0.000000	0.000000	0.000000	0.000000	0.000000	0.000000	0.000000	0.000000	0.000000	0.000000	0.000000	0.000000	0.000000	0.000000	21.314140	-1.202695	-6.166516	-2.427409	-0.059988	2.867916	-12.825170	3.463800	2.301520	0.000000	0.000000	0.000000	17.146010	1.001080	2.158326	2.705113	0.010780	-1.013559	-15.505050	12.969820	8.667240	0.000000	0.000000	0.000000
	-25.0008	90.6331	72.5128	-32.437030	-64.825650	-28.640660	0.000000	0.000000	0.000000	4.089442	0.215989	-0.014750	13.632220	0.711831	-0.108685	0.000000	0.000000	0.000000	0.000000	0.000000	0.000000	0.000000	0.000000	-9.647096	-4.339568	-6.898243	-38.959420	-5.456422	-4.432845	5.177086	0.000000	0.000000	0.000000	0.000000	0.000000	0.000000	0.000000	0.000000	0.000000	0.000000	0.000000	0.000000	0.000000	0.000000	0.000000	0.000000	0.000000	0.000000	0.000000	0.000000	0.000000	0.000000	0.000000	0.000000	0.000000	0.000000	0.000000	0.000000	0.000000	0.000000	0.000000	0.000000	0.000000	0.000000	0.000000	0.000000	0.000000	0.000000	0.000000	0.000000	0.000000	0.000000	0.000000	0.000000	0.000000	0.000000	0.000000	0.000000	0.000000	0.000000	8.345879	-0.854937	-1.889108	33.210120	-8.498922	12.374040	-6.673278	0.000000	0.000000	0.000000	0.000000	0.000000	0.000000	0.000000	0.000000	0.000000	0.000000	0.000000	0.000000	0.000000	0.000000	0.000000	0.000000	0.000000	0.000000	0.000000	0.000000	0.000000	0.000000	0.000000	0.000000	0.000000	0.000000	0.000000	0.000000	0.000000	0.000000	0.000000	0.000000	0.000000	0.000000	0.000000	0.000000	0.000000	0.000000	0.000000	0.000000	0.000000	0.000000	0.000000	0.000000	0.000000	0.000000	0.000000	0.000000	21.286200	-1.195211	-6.077844	-2.254730	-0.050956	2.573420	-13.174970	4.012351	2.655731	0.000000	0.000000	0.000000	17.111910	0.937522	1.859358	2.696711	-0.008983	-0.366045	-13.832430	13.967040	9.042960	0.000000	0.000000	0.000000
	-24.9717	90.6278	72.5148	-32.616140	-64.638730	-28.750360	0.000000	0.000000	0.000000	4.128520	0.212292	-0.015174	13.762470	0.699347	-0.109621	0.000000	0.000000	0.000000	0.000000	0.000000	0.000000	0.000000	0.000000	-9.615203	-4.726271	-6.940204	-38.850460	-5.131969	-4.090392	4.874442	0.000000	0.000000	0.000000	0.000000	0.000000	0.000000	0.000000	0.000000	0.000000	0.000000	0.000000	0.000000	0.000000	0.000000	0.000000	0.000000	0.000000	0.000000	0.000000	0.000000	0.000000	0.000000	0.000000	0.000000	0.000000	0.000000	0.000000	0.000000	0.000000	0.000000	0.000000	0.000000	0.000000	0.000000	0.000000	0.000000	0.000000	0.000000	0.000000	0.000000	0.000000	0.000000	0.000000	0.000000	0.000000	0.000000	0.000000	0.000000	0.000000	0.000000	8.319310	-1.037514	-2.238664	33.097510	-8.352901	12.076830	-6.532222	0.000000	0.000000	0.000000	0.000000	0.000000	0.000000	0.000000	0.000000	0.000000	0.000000	0.000000	0.000000	0.000000	0.000000	0.000000	0.000000	0.000000	0.000000	0.000000	0.000000	0.000000	0.000000	0.000000	0.000000	0.000000	0.000000	0.000000	0.000000	0.000000	0.000000	0.000000	0.000000	0.000000	0.000000	0.000000	0.000000	0.000000	0.000000	0.000000	0.000000	0.000000	0.000000	0.000000	0.000000	0.000000	0.000000	0.000000	0.000000	21.401830	-1.203747	-6.030586	-2.034259	-0.043737	2.429737	-12.994820	4.228598	2.779597	0.000000	0.000000	0.000000	17.157280	0.901032	1.720731	2.762189	-0.000486	-0.040011	-12.641720	14.491410	9.169985	0.000000	0.000000	0.000000
